# xmcd CD database file
#
# Track frame offsets:
#	150
#	17847
#	38120
#
# Disc length: 744 seconds
#
# Revision: 1
# Processed by: cddbd v1.5PL3 Copyright (c) Steve Scherf et al.
# Submitted via: CDex 1.51
#
DISCID=1b02e603
DTITLE=FANATIC◇CRISIS - DEFECT LOVER COMPLEX
DYEAR=2000
DGENRE=JPop
TTITLE0=DEFECT LOVER COMPLEX
TTITLE1=キャンディー CANDY
TTITLE2=DEVILS IN HEAVEN
EXTD=YEAR: 2000
EXTT0=
EXTT1=
EXTT2=
PLAYORDER=
